<mxfile host="app.diagrams.net" modified="2024-05-24T11:49:37.330Z" agent="Mozilla/5.0 (Windows NT 10.0; Win64; x64) AppleWebKit/537.36 (KHTML, like Gecko) Chrome/125.0.0.0 Safari/537.36" etag="GW8Z3nRw3LXiPP9j882s" version="24.4.7" type="github">
  <diagram name="第 1 页" id="4MdKkwTL1JlU-X41MF6B">
    <mxGraphModel dx="1687" dy="878" grid="1" gridSize="10" guides="1" tooltips="1" connect="1" arrows="1" fold="1" page="1" pageScale="1" pageWidth="1169" pageHeight="827" math="0" shadow="0">
      <root>
        <mxCell id="0" />
        <mxCell id="1" parent="0" />
        <mxCell id="-DD8iEFyUxQleitiHUp1-1" value="" style="rounded=0;whiteSpace=wrap;html=1;strokeWidth=2;fillColor=none;dashed=1;" vertex="1" parent="1">
          <mxGeometry x="60" y="150" width="1000" height="120" as="geometry" />
        </mxCell>
        <mxCell id="-DD8iEFyUxQleitiHUp1-2" value="" style="rounded=0;whiteSpace=wrap;html=1;fillColor=#ffe6cc;strokeColor=#d79b00;" vertex="1" parent="1">
          <mxGeometry x="85" y="200" width="70" height="40" as="geometry" />
        </mxCell>
        <mxCell id="-DD8iEFyUxQleitiHUp1-3" value="&lt;font style=&quot;font-size: 14px;&quot;&gt;&lt;b&gt;Backbone&lt;/b&gt;&lt;/font&gt;" style="text;html=1;align=center;verticalAlign=middle;whiteSpace=wrap;rounded=0;" vertex="1" parent="1">
          <mxGeometry x="90" y="160" width="60" height="30" as="geometry" />
        </mxCell>
        <mxCell id="-DD8iEFyUxQleitiHUp1-4" value="" style="rounded=0;whiteSpace=wrap;html=1;fillColor=#dae8fc;strokeColor=#6c8ebf;" vertex="1" parent="1">
          <mxGeometry x="180" y="200" width="70" height="40" as="geometry" />
        </mxCell>
        <mxCell id="-DD8iEFyUxQleitiHUp1-5" value="" style="rounded=0;whiteSpace=wrap;html=1;fillColor=#d5e8d4;strokeColor=#82b366;" vertex="1" parent="1">
          <mxGeometry x="270" y="200" width="70" height="40" as="geometry" />
        </mxCell>
        <mxCell id="-DD8iEFyUxQleitiHUp1-6" value="" style="rounded=0;whiteSpace=wrap;html=1;fillColor=#dae8fc;strokeColor=#6c8ebf;" vertex="1" parent="1">
          <mxGeometry x="360" y="200" width="70" height="40" as="geometry" />
        </mxCell>
        <mxCell id="-DD8iEFyUxQleitiHUp1-7" value="" style="rounded=0;whiteSpace=wrap;html=1;fillColor=#d5e8d4;strokeColor=#82b366;" vertex="1" parent="1">
          <mxGeometry x="460" y="200" width="70" height="40" as="geometry" />
        </mxCell>
        <mxCell id="-DD8iEFyUxQleitiHUp1-8" value="" style="rounded=0;whiteSpace=wrap;html=1;fillColor=#dae8fc;strokeColor=#6c8ebf;" vertex="1" parent="1">
          <mxGeometry x="550" y="200" width="70" height="40" as="geometry" />
        </mxCell>
        <mxCell id="-DD8iEFyUxQleitiHUp1-9" value="" style="rounded=0;whiteSpace=wrap;html=1;fillColor=#d5e8d4;strokeColor=#82b366;" vertex="1" parent="1">
          <mxGeometry x="640" y="200" width="70" height="40" as="geometry" />
        </mxCell>
        <mxCell id="-DD8iEFyUxQleitiHUp1-10" value="" style="rounded=0;whiteSpace=wrap;html=1;fillColor=#dae8fc;strokeColor=#6c8ebf;" vertex="1" parent="1">
          <mxGeometry x="740" y="200" width="70" height="40" as="geometry" />
        </mxCell>
        <mxCell id="-DD8iEFyUxQleitiHUp1-11" value="" style="rounded=0;whiteSpace=wrap;html=1;fillColor=#fff2cc;strokeColor=#d6b656;" vertex="1" parent="1">
          <mxGeometry x="830" y="200" width="70" height="40" as="geometry" />
        </mxCell>
        <mxCell id="-DD8iEFyUxQleitiHUp1-12" value="" style="rounded=0;whiteSpace=wrap;html=1;fillColor=#d5e8d4;strokeColor=#82b366;" vertex="1" parent="1">
          <mxGeometry x="930" y="200" width="70" height="40" as="geometry" />
        </mxCell>
        <mxCell id="-DD8iEFyUxQleitiHUp1-13" value="&lt;font style=&quot;font-size: 14px;&quot;&gt;&lt;b&gt;Focus&lt;/b&gt;&lt;/font&gt;" style="text;html=1;align=center;verticalAlign=middle;resizable=0;points=[];autosize=1;strokeColor=none;fillColor=none;" vertex="1" parent="1">
          <mxGeometry x="90" y="205" width="60" height="30" as="geometry" />
        </mxCell>
        <mxCell id="-DD8iEFyUxQleitiHUp1-14" value="&lt;span style=&quot;font-size: 14px;&quot;&gt;&lt;b&gt;Conv&lt;/b&gt;&lt;/span&gt;" style="text;html=1;align=center;verticalAlign=middle;resizable=0;points=[];autosize=1;strokeColor=none;fillColor=none;" vertex="1" parent="1">
          <mxGeometry x="185" y="205" width="60" height="30" as="geometry" />
        </mxCell>
        <mxCell id="-DD8iEFyUxQleitiHUp1-15" value="&lt;span style=&quot;font-size: 14px;&quot;&gt;&lt;b&gt;Conv&lt;/b&gt;&lt;/span&gt;" style="text;html=1;align=center;verticalAlign=middle;resizable=0;points=[];autosize=1;strokeColor=none;fillColor=none;" vertex="1" parent="1">
          <mxGeometry x="365" y="205" width="60" height="30" as="geometry" />
        </mxCell>
        <mxCell id="-DD8iEFyUxQleitiHUp1-16" value="&lt;span style=&quot;font-size: 14px;&quot;&gt;&lt;b&gt;Conv&lt;/b&gt;&lt;/span&gt;" style="text;html=1;align=center;verticalAlign=middle;resizable=0;points=[];autosize=1;strokeColor=none;fillColor=none;" vertex="1" parent="1">
          <mxGeometry x="555" y="205" width="60" height="30" as="geometry" />
        </mxCell>
        <mxCell id="-DD8iEFyUxQleitiHUp1-17" value="&lt;span style=&quot;font-size: 14px;&quot;&gt;&lt;b&gt;Conv&lt;/b&gt;&lt;/span&gt;" style="text;html=1;align=center;verticalAlign=middle;resizable=0;points=[];autosize=1;strokeColor=none;fillColor=none;" vertex="1" parent="1">
          <mxGeometry x="745" y="205" width="60" height="30" as="geometry" />
        </mxCell>
        <mxCell id="-DD8iEFyUxQleitiHUp1-18" value="&lt;span style=&quot;font-size: 14px;&quot;&gt;&lt;b&gt;C3&lt;/b&gt;&lt;/span&gt;" style="text;html=1;align=center;verticalAlign=middle;resizable=0;points=[];autosize=1;strokeColor=none;fillColor=none;" vertex="1" parent="1">
          <mxGeometry x="285" y="205" width="40" height="30" as="geometry" />
        </mxCell>
        <mxCell id="-DD8iEFyUxQleitiHUp1-19" value="&lt;span style=&quot;font-size: 14px;&quot;&gt;&lt;b&gt;C3&lt;/b&gt;&lt;/span&gt;" style="text;html=1;align=center;verticalAlign=middle;resizable=0;points=[];autosize=1;strokeColor=none;fillColor=none;" vertex="1" parent="1">
          <mxGeometry x="475" y="205" width="40" height="30" as="geometry" />
        </mxCell>
        <mxCell id="-DD8iEFyUxQleitiHUp1-20" value="&lt;span style=&quot;font-size: 14px;&quot;&gt;&lt;b&gt;C3&lt;/b&gt;&lt;/span&gt;" style="text;html=1;align=center;verticalAlign=middle;resizable=0;points=[];autosize=1;strokeColor=none;fillColor=none;" vertex="1" parent="1">
          <mxGeometry x="655" y="205" width="40" height="30" as="geometry" />
        </mxCell>
        <mxCell id="-DD8iEFyUxQleitiHUp1-21" value="&lt;span style=&quot;font-size: 14px;&quot;&gt;&lt;b&gt;C3&lt;/b&gt;&lt;/span&gt;" style="text;html=1;align=center;verticalAlign=middle;resizable=0;points=[];autosize=1;strokeColor=none;fillColor=none;" vertex="1" parent="1">
          <mxGeometry x="945" y="205" width="40" height="30" as="geometry" />
        </mxCell>
        <mxCell id="-DD8iEFyUxQleitiHUp1-22" value="&lt;span style=&quot;font-size: 14px;&quot;&gt;&lt;b&gt;SPP&lt;/b&gt;&lt;/span&gt;" style="text;html=1;align=center;verticalAlign=middle;resizable=0;points=[];autosize=1;strokeColor=none;fillColor=none;" vertex="1" parent="1">
          <mxGeometry x="840" y="205" width="50" height="30" as="geometry" />
        </mxCell>
        <mxCell id="-DD8iEFyUxQleitiHUp1-46" value="" style="endArrow=classic;html=1;rounded=0;entryX=0;entryY=0.5;entryDx=0;entryDy=0;strokeWidth=2;" edge="1" parent="1" target="-DD8iEFyUxQleitiHUp1-4">
          <mxGeometry width="50" height="50" relative="1" as="geometry">
            <mxPoint x="155" y="220" as="sourcePoint" />
            <mxPoint x="205" y="170" as="targetPoint" />
          </mxGeometry>
        </mxCell>
        <mxCell id="-DD8iEFyUxQleitiHUp1-47" value="" style="endArrow=classic;html=1;rounded=0;entryX=0;entryY=0.5;entryDx=0;entryDy=0;strokeWidth=2;" edge="1" parent="1">
          <mxGeometry width="50" height="50" relative="1" as="geometry">
            <mxPoint x="250" y="220" as="sourcePoint" />
            <mxPoint x="270" y="219.76" as="targetPoint" />
          </mxGeometry>
        </mxCell>
        <mxCell id="-DD8iEFyUxQleitiHUp1-48" value="" style="endArrow=classic;html=1;rounded=0;entryX=0;entryY=0.5;entryDx=0;entryDy=0;strokeWidth=2;" edge="1" parent="1">
          <mxGeometry width="50" height="50" relative="1" as="geometry">
            <mxPoint x="340" y="220" as="sourcePoint" />
            <mxPoint x="360" y="219.76" as="targetPoint" />
          </mxGeometry>
        </mxCell>
        <mxCell id="-DD8iEFyUxQleitiHUp1-49" value="" style="endArrow=classic;html=1;rounded=0;entryX=0;entryY=0.5;entryDx=0;entryDy=0;strokeWidth=2;" edge="1" parent="1" target="-DD8iEFyUxQleitiHUp1-7">
          <mxGeometry width="50" height="50" relative="1" as="geometry">
            <mxPoint x="430" y="219.76" as="sourcePoint" />
            <mxPoint x="455" y="219.76" as="targetPoint" />
          </mxGeometry>
        </mxCell>
        <mxCell id="-DD8iEFyUxQleitiHUp1-50" value="" style="endArrow=classic;html=1;rounded=0;strokeWidth=2;" edge="1" parent="1">
          <mxGeometry width="50" height="50" relative="1" as="geometry">
            <mxPoint x="530" y="219.76" as="sourcePoint" />
            <mxPoint x="550" y="220" as="targetPoint" />
          </mxGeometry>
        </mxCell>
        <mxCell id="-DD8iEFyUxQleitiHUp1-52" value="" style="endArrow=classic;html=1;rounded=0;strokeWidth=2;" edge="1" parent="1">
          <mxGeometry width="50" height="50" relative="1" as="geometry">
            <mxPoint x="620" y="219.76" as="sourcePoint" />
            <mxPoint x="640" y="220" as="targetPoint" />
          </mxGeometry>
        </mxCell>
        <mxCell id="-DD8iEFyUxQleitiHUp1-54" value="" style="endArrow=classic;html=1;rounded=0;strokeWidth=2;entryX=0;entryY=0.5;entryDx=0;entryDy=0;" edge="1" parent="1" target="-DD8iEFyUxQleitiHUp1-10">
          <mxGeometry width="50" height="50" relative="1" as="geometry">
            <mxPoint x="710" y="219.88" as="sourcePoint" />
            <mxPoint x="730" y="220.12" as="targetPoint" />
          </mxGeometry>
        </mxCell>
        <mxCell id="-DD8iEFyUxQleitiHUp1-55" value="" style="endArrow=classic;html=1;rounded=0;strokeWidth=2;" edge="1" parent="1">
          <mxGeometry width="50" height="50" relative="1" as="geometry">
            <mxPoint x="810" y="219.88" as="sourcePoint" />
            <mxPoint x="830" y="220.12" as="targetPoint" />
          </mxGeometry>
        </mxCell>
        <mxCell id="-DD8iEFyUxQleitiHUp1-56" value="" style="endArrow=classic;html=1;rounded=0;strokeWidth=2;entryX=0;entryY=0.5;entryDx=0;entryDy=0;" edge="1" parent="1" target="-DD8iEFyUxQleitiHUp1-12">
          <mxGeometry width="50" height="50" relative="1" as="geometry">
            <mxPoint x="900" y="219.88" as="sourcePoint" />
            <mxPoint x="920" y="220.12" as="targetPoint" />
          </mxGeometry>
        </mxCell>
        <mxCell id="-DD8iEFyUxQleitiHUp1-57" value="" style="rounded=0;whiteSpace=wrap;html=1;strokeWidth=2;fillColor=none;dashed=1;" vertex="1" parent="1">
          <mxGeometry x="60" y="354" width="1060" height="120" as="geometry" />
        </mxCell>
        <mxCell id="-DD8iEFyUxQleitiHUp1-58" value="" style="rounded=0;whiteSpace=wrap;html=1;fillColor=#ffe6cc;strokeColor=#d79b00;" vertex="1" parent="1">
          <mxGeometry x="85" y="404" width="70" height="40" as="geometry" />
        </mxCell>
        <mxCell id="-DD8iEFyUxQleitiHUp1-59" value="&lt;font style=&quot;font-size: 14px;&quot;&gt;&lt;b&gt;Backbone&lt;/b&gt;&lt;/font&gt;" style="text;html=1;align=center;verticalAlign=middle;whiteSpace=wrap;rounded=0;" vertex="1" parent="1">
          <mxGeometry x="90" y="364" width="60" height="30" as="geometry" />
        </mxCell>
        <mxCell id="-DD8iEFyUxQleitiHUp1-60" value="" style="rounded=0;whiteSpace=wrap;html=1;fillColor=#dae8fc;strokeColor=#6c8ebf;" vertex="1" parent="1">
          <mxGeometry x="180" y="404" width="70" height="40" as="geometry" />
        </mxCell>
        <mxCell id="-DD8iEFyUxQleitiHUp1-61" value="" style="rounded=0;whiteSpace=wrap;html=1;fillColor=#d5e8d4;strokeColor=#82b366;" vertex="1" parent="1">
          <mxGeometry x="270" y="404" width="70" height="40" as="geometry" />
        </mxCell>
        <mxCell id="-DD8iEFyUxQleitiHUp1-62" value="" style="rounded=0;whiteSpace=wrap;html=1;fillColor=#dae8fc;strokeColor=#6c8ebf;" vertex="1" parent="1">
          <mxGeometry x="360" y="404" width="70" height="40" as="geometry" />
        </mxCell>
        <mxCell id="-DD8iEFyUxQleitiHUp1-63" value="" style="rounded=0;whiteSpace=wrap;html=1;fillColor=#d5e8d4;strokeColor=#82b366;" vertex="1" parent="1">
          <mxGeometry x="460" y="404" width="70" height="40" as="geometry" />
        </mxCell>
        <mxCell id="-DD8iEFyUxQleitiHUp1-64" value="" style="rounded=0;whiteSpace=wrap;html=1;fillColor=#dae8fc;strokeColor=#6c8ebf;" vertex="1" parent="1">
          <mxGeometry x="550" y="404" width="70" height="40" as="geometry" />
        </mxCell>
        <mxCell id="-DD8iEFyUxQleitiHUp1-65" value="" style="rounded=0;whiteSpace=wrap;html=1;fillColor=#d5e8d4;strokeColor=#82b366;" vertex="1" parent="1">
          <mxGeometry x="640" y="404" width="70" height="40" as="geometry" />
        </mxCell>
        <mxCell id="-DD8iEFyUxQleitiHUp1-66" value="" style="rounded=0;whiteSpace=wrap;html=1;fillColor=#dae8fc;strokeColor=#6c8ebf;" vertex="1" parent="1">
          <mxGeometry x="740" y="404" width="70" height="40" as="geometry" />
        </mxCell>
        <mxCell id="-DD8iEFyUxQleitiHUp1-67" value="" style="rounded=0;whiteSpace=wrap;html=1;fillColor=#fff2cc;strokeColor=#d6b656;" vertex="1" parent="1">
          <mxGeometry x="830" y="404" width="70" height="40" as="geometry" />
        </mxCell>
        <mxCell id="-DD8iEFyUxQleitiHUp1-68" value="" style="rounded=0;whiteSpace=wrap;html=1;fillColor=#d5e8d4;strokeColor=#82b366;" vertex="1" parent="1">
          <mxGeometry x="930" y="404" width="70" height="40" as="geometry" />
        </mxCell>
        <mxCell id="-DD8iEFyUxQleitiHUp1-69" value="&lt;font style=&quot;font-size: 14px;&quot;&gt;&lt;b&gt;Focus&lt;/b&gt;&lt;/font&gt;" style="text;html=1;align=center;verticalAlign=middle;resizable=0;points=[];autosize=1;strokeColor=none;fillColor=none;" vertex="1" parent="1">
          <mxGeometry x="90" y="409" width="60" height="30" as="geometry" />
        </mxCell>
        <mxCell id="-DD8iEFyUxQleitiHUp1-70" value="&lt;span style=&quot;font-size: 14px;&quot;&gt;&lt;b&gt;Conv&lt;/b&gt;&lt;/span&gt;" style="text;html=1;align=center;verticalAlign=middle;resizable=0;points=[];autosize=1;strokeColor=none;fillColor=none;" vertex="1" parent="1">
          <mxGeometry x="185" y="409" width="60" height="30" as="geometry" />
        </mxCell>
        <mxCell id="-DD8iEFyUxQleitiHUp1-71" value="&lt;span style=&quot;font-size: 14px;&quot;&gt;&lt;b&gt;Conv&lt;/b&gt;&lt;/span&gt;" style="text;html=1;align=center;verticalAlign=middle;resizable=0;points=[];autosize=1;strokeColor=none;fillColor=none;" vertex="1" parent="1">
          <mxGeometry x="365" y="409" width="60" height="30" as="geometry" />
        </mxCell>
        <mxCell id="-DD8iEFyUxQleitiHUp1-72" value="&lt;span style=&quot;font-size: 14px;&quot;&gt;&lt;b&gt;Conv&lt;/b&gt;&lt;/span&gt;" style="text;html=1;align=center;verticalAlign=middle;resizable=0;points=[];autosize=1;strokeColor=none;fillColor=none;" vertex="1" parent="1">
          <mxGeometry x="555" y="409" width="60" height="30" as="geometry" />
        </mxCell>
        <mxCell id="-DD8iEFyUxQleitiHUp1-73" value="&lt;span style=&quot;font-size: 14px;&quot;&gt;&lt;b&gt;Conv&lt;/b&gt;&lt;/span&gt;" style="text;html=1;align=center;verticalAlign=middle;resizable=0;points=[];autosize=1;strokeColor=none;fillColor=none;" vertex="1" parent="1">
          <mxGeometry x="745" y="409" width="60" height="30" as="geometry" />
        </mxCell>
        <mxCell id="-DD8iEFyUxQleitiHUp1-74" value="&lt;span style=&quot;font-size: 14px;&quot;&gt;&lt;b&gt;C3&lt;/b&gt;&lt;/span&gt;" style="text;html=1;align=center;verticalAlign=middle;resizable=0;points=[];autosize=1;strokeColor=none;fillColor=none;" vertex="1" parent="1">
          <mxGeometry x="285" y="409" width="40" height="30" as="geometry" />
        </mxCell>
        <mxCell id="-DD8iEFyUxQleitiHUp1-75" value="&lt;span style=&quot;font-size: 14px;&quot;&gt;&lt;b&gt;C3&lt;/b&gt;&lt;/span&gt;" style="text;html=1;align=center;verticalAlign=middle;resizable=0;points=[];autosize=1;strokeColor=none;fillColor=none;" vertex="1" parent="1">
          <mxGeometry x="475" y="409" width="40" height="30" as="geometry" />
        </mxCell>
        <mxCell id="-DD8iEFyUxQleitiHUp1-76" value="&lt;span style=&quot;font-size: 14px;&quot;&gt;&lt;b&gt;C3&lt;/b&gt;&lt;/span&gt;" style="text;html=1;align=center;verticalAlign=middle;resizable=0;points=[];autosize=1;strokeColor=none;fillColor=none;" vertex="1" parent="1">
          <mxGeometry x="655" y="409" width="40" height="30" as="geometry" />
        </mxCell>
        <mxCell id="-DD8iEFyUxQleitiHUp1-77" value="&lt;span style=&quot;font-size: 14px;&quot;&gt;&lt;b&gt;C3&lt;/b&gt;&lt;/span&gt;" style="text;html=1;align=center;verticalAlign=middle;resizable=0;points=[];autosize=1;strokeColor=none;fillColor=none;" vertex="1" parent="1">
          <mxGeometry x="945" y="409" width="40" height="30" as="geometry" />
        </mxCell>
        <mxCell id="-DD8iEFyUxQleitiHUp1-78" value="&lt;span style=&quot;font-size: 14px;&quot;&gt;&lt;b&gt;SPP&lt;/b&gt;&lt;/span&gt;" style="text;html=1;align=center;verticalAlign=middle;resizable=0;points=[];autosize=1;strokeColor=none;fillColor=none;" vertex="1" parent="1">
          <mxGeometry x="840" y="409" width="50" height="30" as="geometry" />
        </mxCell>
        <mxCell id="-DD8iEFyUxQleitiHUp1-79" value="" style="endArrow=classic;html=1;rounded=0;entryX=0;entryY=0.5;entryDx=0;entryDy=0;strokeWidth=2;" edge="1" parent="1" target="-DD8iEFyUxQleitiHUp1-60">
          <mxGeometry width="50" height="50" relative="1" as="geometry">
            <mxPoint x="155" y="424" as="sourcePoint" />
            <mxPoint x="205" y="374" as="targetPoint" />
          </mxGeometry>
        </mxCell>
        <mxCell id="-DD8iEFyUxQleitiHUp1-80" value="" style="endArrow=classic;html=1;rounded=0;entryX=0;entryY=0.5;entryDx=0;entryDy=0;strokeWidth=2;" edge="1" parent="1">
          <mxGeometry width="50" height="50" relative="1" as="geometry">
            <mxPoint x="250" y="424" as="sourcePoint" />
            <mxPoint x="270" y="423.76" as="targetPoint" />
          </mxGeometry>
        </mxCell>
        <mxCell id="-DD8iEFyUxQleitiHUp1-81" value="" style="endArrow=classic;html=1;rounded=0;entryX=0;entryY=0.5;entryDx=0;entryDy=0;strokeWidth=2;" edge="1" parent="1">
          <mxGeometry width="50" height="50" relative="1" as="geometry">
            <mxPoint x="340" y="424" as="sourcePoint" />
            <mxPoint x="360" y="423.76" as="targetPoint" />
          </mxGeometry>
        </mxCell>
        <mxCell id="-DD8iEFyUxQleitiHUp1-82" value="" style="endArrow=classic;html=1;rounded=0;entryX=0;entryY=0.5;entryDx=0;entryDy=0;strokeWidth=2;" edge="1" parent="1" target="-DD8iEFyUxQleitiHUp1-63">
          <mxGeometry width="50" height="50" relative="1" as="geometry">
            <mxPoint x="430" y="423.76" as="sourcePoint" />
            <mxPoint x="455" y="423.76" as="targetPoint" />
          </mxGeometry>
        </mxCell>
        <mxCell id="-DD8iEFyUxQleitiHUp1-83" value="" style="endArrow=classic;html=1;rounded=0;strokeWidth=2;" edge="1" parent="1">
          <mxGeometry width="50" height="50" relative="1" as="geometry">
            <mxPoint x="530" y="423.76" as="sourcePoint" />
            <mxPoint x="550" y="424" as="targetPoint" />
          </mxGeometry>
        </mxCell>
        <mxCell id="-DD8iEFyUxQleitiHUp1-84" value="" style="endArrow=classic;html=1;rounded=0;strokeWidth=2;" edge="1" parent="1">
          <mxGeometry width="50" height="50" relative="1" as="geometry">
            <mxPoint x="620" y="423.76" as="sourcePoint" />
            <mxPoint x="640" y="424" as="targetPoint" />
          </mxGeometry>
        </mxCell>
        <mxCell id="-DD8iEFyUxQleitiHUp1-85" value="" style="endArrow=classic;html=1;rounded=0;strokeWidth=2;entryX=0;entryY=0.5;entryDx=0;entryDy=0;" edge="1" parent="1" target="-DD8iEFyUxQleitiHUp1-66">
          <mxGeometry width="50" height="50" relative="1" as="geometry">
            <mxPoint x="710" y="423.88" as="sourcePoint" />
            <mxPoint x="730" y="424.12" as="targetPoint" />
          </mxGeometry>
        </mxCell>
        <mxCell id="-DD8iEFyUxQleitiHUp1-86" value="" style="endArrow=classic;html=1;rounded=0;strokeWidth=2;" edge="1" parent="1">
          <mxGeometry width="50" height="50" relative="1" as="geometry">
            <mxPoint x="810" y="423.88" as="sourcePoint" />
            <mxPoint x="830" y="424.12" as="targetPoint" />
          </mxGeometry>
        </mxCell>
        <mxCell id="-DD8iEFyUxQleitiHUp1-87" value="" style="endArrow=classic;html=1;rounded=0;strokeWidth=2;entryX=0;entryY=0.5;entryDx=0;entryDy=0;" edge="1" parent="1" target="-DD8iEFyUxQleitiHUp1-68">
          <mxGeometry width="50" height="50" relative="1" as="geometry">
            <mxPoint x="900" y="423.88" as="sourcePoint" />
            <mxPoint x="920" y="424.12" as="targetPoint" />
          </mxGeometry>
        </mxCell>
        <mxCell id="-DD8iEFyUxQleitiHUp1-88" value="" style="endArrow=classic;html=1;rounded=0;strokeWidth=2;entryX=0;entryY=0.5;entryDx=0;entryDy=0;" edge="1" parent="1">
          <mxGeometry width="50" height="50" relative="1" as="geometry">
            <mxPoint x="1000" y="423.76" as="sourcePoint" />
            <mxPoint x="1030" y="423.88" as="targetPoint" />
          </mxGeometry>
        </mxCell>
        <mxCell id="-DD8iEFyUxQleitiHUp1-90" value="" style="rounded=0;whiteSpace=wrap;html=1;fillColor=#d80073;strokeColor=#A50040;fontColor=#ffffff;" vertex="1" parent="1">
          <mxGeometry x="1030" y="404" width="70" height="40" as="geometry" />
        </mxCell>
        <mxCell id="-DD8iEFyUxQleitiHUp1-91" value="&lt;span style=&quot;font-size: 14px;&quot;&gt;&lt;b&gt;Attention&lt;/b&gt;&lt;/span&gt;" style="text;html=1;align=center;verticalAlign=middle;resizable=0;points=[];autosize=1;strokeColor=none;fillColor=none;" vertex="1" parent="1">
          <mxGeometry x="1025" y="409" width="80" height="30" as="geometry" />
        </mxCell>
        <mxCell id="-DD8iEFyUxQleitiHUp1-92" value="" style="shape=flexArrow;endArrow=classic;html=1;rounded=0;fillColor=#0d0d0d;" edge="1" parent="1">
          <mxGeometry width="50" height="50" relative="1" as="geometry">
            <mxPoint x="559.5" y="280" as="sourcePoint" />
            <mxPoint x="559.5" y="340" as="targetPoint" />
          </mxGeometry>
        </mxCell>
        <mxCell id="-DD8iEFyUxQleitiHUp1-93" value="" style="rounded=0;whiteSpace=wrap;html=1;fillColor=none;dashed=1;strokeWidth=2;fontColor=#ffffff;strokeColor=#A50040;" vertex="1" parent="1">
          <mxGeometry x="1020" y="397" width="90" height="54" as="geometry" />
        </mxCell>
      </root>
    </mxGraphModel>
  </diagram>
</mxfile>
